<svg xmlns="http://www.w3.org/2000/svg" xmlns:xlink="http://www.w3.org/1999/xlink" version="1.1" x="0px" y="0px" viewBox="0 0 188.667 235" fill="#D52941"><path d="M182.966,155.688C183.438,156.822,183.203,156.255,182.966,155.688L182.966,155.688z"/><path d="M182.708,155.068c0.024,0.064,0.1,0.238,0.25,0.6c0.002,0.006,0.004,0.01,0.006,0.014  C182.855,155.414,182.746,155.16,182.708,155.068z"/><path d="M182.964,155.688c-0.002-0.008-0.004-0.012-0.006-0.02c-3.254-8.014-13.367-4-19.674-1.572  c-9.6,2.678-19.49,4.453-29.455,4.862c-10.158,0.419-38.457,0.044-42.851-12.772c6.94-5.414,44.384,11.857,38.647-8.949  c-2.096-9.816-32.119-14.387-40.83-14.387c-20.443-1.351-41.285-0.691-61.963-0.254v39.541h17.9  c2.386,0,14.149,13.213,17.759,15.191c20.677,11.324,46.088,9.854,68.415,5.18C141.207,180.355,189.634,171.711,182.964,155.688z"/><rect x="4.997" y="116.166" width="17.837" height="52.334"/><path d="M125.67,57.509v0.143c0,2.64,0,4.919,0.893,6.194c0.711,1.015,2.304,1.654,4.75,1.911v-16.51  C125.671,49.792,125.67,52.316,125.67,57.509z"/><path d="M136.82,71.496v16.509c2.243-0.218,3.808-0.727,4.581-1.502c1.009-1.014,1.053-2.903,1.039-5.9l-0.002-0.85  c0-0.335,0.002-0.666,0.004-0.994c0.018-2.932-0.021-4.779-1.001-5.765C140.87,72.419,139.6,71.761,136.82,71.496z"/><path d="M133.729,23.42c-24.904,0-45.091,20.188-45.091,45.091c0,24.904,20.187,45.092,45.091,45.092  c24.902,0,45.091-20.188,45.091-45.092C178.82,43.608,158.631,23.42,133.729,23.42z M147.947,80.578  c0.016,3.502,0.031,7.123-2.644,9.811c-1.811,1.816-4.543,2.837-8.483,3.145v5.134h-5.507v-5.103  c-5.264-0.312-10.873-2.213-10.873-13.82h5.508c0,6.782,1.608,8.072,5.365,8.317v-16.78c-4.52-0.378-7.5-1.76-9.261-4.276  c-1.89-2.697-1.889-6.082-1.889-9.354v-0.143c0-5.445,0.007-12.755,11.149-13.762v-4.59h5.507v4.512  c5.305,0.286,11.018,2.116,11.018,13.831h-5.507c0-6.869-1.65-8.104-5.511-8.326v16.796c3.974,0.306,6.72,1.325,8.526,3.143  c2.646,2.661,2.623,6.23,2.604,9.681c-0.004,0.316-0.005,0.636-0.005,0.96L147.947,80.578z"/></svg>
