<svg xmlns="http://www.w3.org/2000/svg" viewBox="0 0 526.48 108"><defs></defs><title>Asset 1</title><g id="Layer_2" data-name="Layer 2"><g id="Layer_1-2" data-name="Layer 1" fill="#fff"><g id="Layer_38" data-name="Layer 38"><path  class="cls-1" d="M0,10.77A9.26,9.26,0,0,1,.71,7.06,8.43,8.43,0,0,1,2.56,4.31,8,8,0,0,1,5.24,2.6,8.61,8.61,0,0,1,8.39,2a9.15,9.15,0,0,1,4.2,1,10.58,10.58,0,0,1,3.68,3.27L72.49,91.07V7.95A6.09,6.09,0,0,1,73,5.35a5.28,5.28,0,0,1,1.41-1.86,6.19,6.19,0,0,1,2-1.11A7.23,7.23,0,0,1,78.73,2,7,7,0,0,1,81,2.38a6.18,6.18,0,0,1,2,1.11,5.28,5.28,0,0,1,1.41,1.86,6.11,6.11,0,0,1,.52,2.6V99.16a8.89,8.89,0,0,1-.74,3.71,8.05,8.05,0,0,1-2,2.75,9.07,9.07,0,0,1-2.86,1.71,9.59,9.59,0,0,1-3.38.6,9.82,9.82,0,0,1-4.31-1,10.2,10.2,0,0,1-3.79-3.27L12.48,20.06v82a5.49,5.49,0,0,1-.56,2.56,5.8,5.8,0,0,1-1.45,1.82,6.15,6.15,0,0,1-2,1.11,7.23,7.23,0,0,1-2.3.37,6.84,6.84,0,0,1-4.27-1.45A5.21,5.21,0,0,1,0,102.06V10.77Z"/><path class="cls-1" d="M119.51,107.93a5.81,5.81,0,0,1-2.41-.52A7.31,7.31,0,0,1,115,106a7.06,7.06,0,0,1-1.49-2,5.48,5.48,0,0,1-.56-2.41V8.39a6.45,6.45,0,0,1,.45-2.34,6.09,6.09,0,0,1,1.3-2,7.1,7.1,0,0,1,2-1.45A5.41,5.41,0,0,1,119.14,2h55.41a4.92,4.92,0,0,1,4.08,1.67A5.75,5.75,0,0,1,180,7.35a5.85,5.85,0,0,1-1.34,3.75,4.92,4.92,0,0,1-4.08,1.67H126V48.06h46.2a5,5,0,0,1,4.16,1.67,5.75,5.75,0,0,1,1.34,3.68,5.66,5.66,0,0,1-1.37,3.68,5,5,0,0,1-4.12,1.67H126v38.4h50.66a4.92,4.92,0,0,1,4.09,1.67,5.75,5.75,0,0,1,1.34,3.68,5.85,5.85,0,0,1-1.34,3.75,4.92,4.92,0,0,1-4.09,1.67H119.51Z"/><path class="cls-1" d="M207.9,104.88a6.9,6.9,0,0,1-2.49,2.34,6,6,0,0,1-2.79.71,6.14,6.14,0,0,1-2.3-.45,6.45,6.45,0,0,1-2-1.23,6.19,6.19,0,0,1-1.37-1.82,4.75,4.75,0,0,1-.52-2.15,5.63,5.63,0,0,1,1.19-3.34l33.05-45.53L199.88,11.14a4.78,4.78,0,0,1-.41-5.35,7.28,7.28,0,0,1,1.63-2,7.66,7.66,0,0,1,2.3-1.34A7.51,7.51,0,0,1,206,2a6.79,6.79,0,0,1,3,.71,6.73,6.73,0,0,1,2.56,2.34l27.93,40.19L268.44,5.05A7.51,7.51,0,0,1,271,2.71,6.18,6.18,0,0,1,273.86,2a5.87,5.87,0,0,1,2.27.45A7,7,0,0,1,278,3.6a5.25,5.25,0,0,1,1.3,1.71,4.82,4.82,0,0,1,.48,2.12,5,5,0,0,1-.26,1.6,6,6,0,0,1-.85,1.6L246.83,53.41l32.68,45.16a5.26,5.26,0,0,1,1,3,5,5,0,0,1-.63,2.41,7,7,0,0,1-1.64,2,8.36,8.36,0,0,1-2.27,1.38,6.78,6.78,0,0,1-2.6.52,6.35,6.35,0,0,1-5.27-3L238.06,62Z"/><path class="cls-1" d="M404.29,26q-6.61,16.34-11.81,29.12-2.23,5.5-4.31,10.7t-3.75,9.28l-2.71,6.61-1,2.45q-1.56,3.79-3.31,7.2a29.52,29.52,0,0,1-4,6,18.18,18.18,0,0,1-5,4.09,13.19,13.19,0,0,1-6.43,1.52,14,14,0,0,1-5.87-1.15,14.27,14.27,0,0,1-4.64-3.49,28.41,28.41,0,0,1-4-5.87,84.71,84.71,0,0,1-3.71-8.21l-23.4-57.94V97.15a10.72,10.72,0,0,1-.85,4.23,10.51,10.51,0,0,1-2.34,3.45,11.27,11.27,0,0,1-3.49,2.3,10.84,10.84,0,0,1-15.08-10V28.6a94.9,94.9,0,0,1,.67-11.77,25.13,25.13,0,0,1,2.71-9A14.38,14.38,0,0,1,307.77,2a19.91,19.91,0,0,1,9.69-2A17.89,17.89,0,0,1,325,1.49a17.59,17.59,0,0,1,6,4.79,43.64,43.64,0,0,1,5.42,8.58q2.63,5.28,5.76,12.78L362,75.54h.6l20.05-47.91q2.67-6.39,5.24-11.51a47.25,47.25,0,0,1,5.46-8.69,22.47,22.47,0,0,1,6.31-5.5A15.56,15.56,0,0,1,407.49,0a22.26,22.26,0,0,1,8.28,1.41,13,13,0,0,1,5.79,4.53A21.74,21.74,0,0,1,424.94,14a55,55,0,0,1,1.11,11.92V97.15a10.72,10.72,0,0,1-.85,4.23,10.51,10.51,0,0,1-2.34,3.45,11.27,11.27,0,0,1-3.49,2.3,10.84,10.84,0,0,1-15.08-10V26Z"/><path class="cls-1" d="M463.42,107.93a12,12,0,0,1-6.35-1.56,12.38,12.38,0,0,1-4.12-4,17.28,17.28,0,0,1-2.23-5.61,29.69,29.69,0,0,1-.67-6.24V19.68a55,55,0,0,1,.52-7.84,14.43,14.43,0,0,1,2.3-6.2,11.81,11.81,0,0,1,5.2-4.09A23.5,23.5,0,0,1,467.28.07H515a10.52,10.52,0,0,1,4,.78,11.06,11.06,0,0,1,3.31,2.08A9.61,9.61,0,0,1,524.55,6a9,9,0,0,1,.82,3.79,8.73,8.73,0,0,1-.82,3.75,9.69,9.69,0,0,1-2.23,3,10.4,10.4,0,0,1-3.31,2,11,11,0,0,1-4,.74H476.71V43.45h34.91a11,11,0,0,1,4,.74,10.12,10.12,0,0,1,5.53,5.16,9,9,0,0,1,0,7.5,9.69,9.69,0,0,1-2.23,3,10.45,10.45,0,0,1-3.3,2,11,11,0,0,1-4,.74H476.71v26h40.11a9.5,9.5,0,0,1,3.75.74,9.76,9.76,0,0,1,5.16,5.16,9.85,9.85,0,0,1,0,7.5,9.23,9.23,0,0,1-2.08,3,10,10,0,0,1-3.08,2,9.48,9.48,0,0,1-3.75.74Z"/></g></g></g></svg>